<svg width="24" height="24" viewBox="0 0 24 24" fill="none" xmlns="http://www.w3.org/2000/svg">
<path d="M14.6154 19H7.07695C6.79134 19 6.51742 18.8865 6.31545 18.6846C6.11349 18.4826 6.00003 18.2087 6.00003 17.9231V8.23077M17.8462 15.2308C17.8462 15.5164 17.7327 15.7903 17.5308 15.9923C17.3288 16.1942 17.0549 16.3077 16.7693 16.3077H9.76926C9.48364 16.3077 9.20972 16.1942 9.00776 15.9923C8.8058 15.7903 8.69234 15.5164 8.69234 15.2308V6.07692C8.69234 5.79131 8.8058 5.51739 9.00776 5.31542C9.20972 5.11346 9.48364 5 9.76926 5H14.6154L17.8462 8.23077V15.2308Z" stroke="#6C7151" stroke-linecap="square"/>
</svg>
